<svg xmlns="http://www.w3.org/2000/svg" width="26" height="26" viewBox="0 0 26 26" fill="none">
			<rect x="7.17212" y="8.21875" width="11.1562" height="9.5625" fill="white" />
			<path
				d="M23.7719 10.6202C19.0745 9.11985 16.6301 6.67544 15.1298 1.97808C14.3937 -0.326027 11.1075 -0.326027 10.3714 1.97808C8.87108 6.67544 6.42668 9.11985 1.72933 10.6202C-0.576445 11.3563 -0.576445 14.6425 1.72933 15.3786C6.42668 16.8789 8.87108 19.3233 10.3714 24.0207C11.1075 26.3264 14.3937 26.3264 15.1298 24.0207C16.6301 19.3233 19.0745 16.8789 23.7719 15.3786C26.076 14.6425 26.076 11.3563 23.7719 10.6202ZM8.28516 11.221C8.30166 10.1844 8.95856 9.22714 9.90761 8.92344C10.619 8.69567 11.3023 8.84587 11.9493 9.19082C12.4642 9.46646 12.9776 9.7487 13.4909 10.0276C13.9134 10.2571 14.3508 10.4469 14.8261 10.5327C15.5309 10.6614 16.1333 10.1844 16.1647 9.47306C16.1768 9.19798 16.3226 9.06044 16.6021 9.06044C16.716 9.06044 16.8299 9.06209 16.9437 9.06044C17.1275 9.05823 17.2183 9.15231 17.2161 9.34267C17.2062 10.5492 16.5427 11.424 15.3758 11.7491C14.9053 11.8795 14.4416 11.8036 13.9926 11.6336C13.2614 11.3596 12.5979 10.9503 11.913 10.5822C11.5565 10.3891 11.1933 10.196 10.7906 10.1151C9.96372 9.95171 9.31012 10.4469 9.25729 11.2903C9.2441 11.5263 9.15333 11.5874 8.94537 11.5709C8.83808 11.5626 8.73079 11.5692 8.6235 11.5692C8.39354 11.5703 8.28076 11.4542 8.28516 11.221ZM17.0097 17.1843C15.5887 17.1793 14.1692 17.181 12.7482 17.181H8.57235C8.28681 17.181 8.28186 17.176 8.28351 16.8971C8.28351 16.6396 8.28516 16.3838 8.28351 16.1263C8.28351 15.9827 8.34786 15.9233 8.49478 15.9299C9.77886 15.981 11.0646 15.9447 12.3487 15.9497C13.9117 15.9563 15.4748 15.953 17.0378 15.948C17.1715 15.948 17.2161 15.9959 17.2161 16.1197C17.2144 16.4052 17.2111 16.6908 17.2194 16.9763C17.2243 17.1331 17.1715 17.1859 17.0097 17.1843ZM17.2194 14.1902C17.2276 14.38 17.1534 14.4329 16.9685 14.4329C14.4135 14.4279 11.8602 14.4312 9.30517 14.4312C9.04768 14.4312 8.79186 14.4263 8.53439 14.4312C8.35777 14.4362 8.2736 14.3734 8.2802 14.182C8.29177 13.8981 8.28351 13.6126 8.28186 13.327C8.28186 13.2131 8.31816 13.1669 8.44526 13.1669C9.87293 13.1719 11.299 13.1702 12.7267 13.1702V13.1735C14.1461 13.1735 15.5672 13.1768 16.9867 13.1686C17.1682 13.1669 17.226 13.2247 17.2194 13.3996C17.2095 13.6621 17.2078 13.9278 17.2194 14.1902Z"
				fill="url(#paint0_linear_7632_59824)"
			/>
			<defs>
				<linearGradient
					id="paint0_linear_7632_59824"
					x1="9.5625"
					y1="6.22656"
					x2="18.3281"
					y2="20.5703"
					gradientUnits="userSpaceOnUse"
				>
					<stop stop-color="#FF6B6B" />
					<stop offset="1" stop-color="#F98E6D" />
				</linearGradient>
			</defs>
		</svg>